<svg xmlns="http://www.w3.org/2000/svg" width="40" height="80">
     
  <!--frame-->
  <line x1="0" y1="0" x2="40" y2="0" style="stroke:rgb(173,213,249); stroke-width:1;" />
  <line x1="0" y1="0" x2="0" y2="80" style="stroke:rgb(173,213,249); stroke-width:1;" />
  <line x1="0" y1="80" x2="40" y2="80" style="stroke:rgb(173,213,249); stroke-width:1;" />
  <line x1="40" y1="0" x2="40" y2="80" style="stroke:rgb(173,213,249); stroke-width:1;" />
  <!--top title-->
  <line x1="0" y1="0" x2="5" y2="5" style="stroke:rgb(173,213,249); stroke-width:1;" />
  <line x1="5" y1="5" x2="35" y2="5" style="stroke:rgb(173,213,249); stroke-width:1;" />
  <line x1="35" y1="5" x2="40" y2="0" style="stroke:rgb(173,213,249); stroke-width:1;" />
  <!--bottom control panel-->
  <line x1="0" y1="72" x2="40" y2="72" style="stroke:rgb(173,213,249); stroke-width:1;" />
  <line x1="12" y1="72" x2="12" y2="80" style="stroke:rgb(173,213,249); stroke-width:1;" />
  <line x1="27" y1="72" x2="27" y2="80" style="stroke:rgb(173,213,249); stroke-width:1;" />
  <!--control button-->
  <rect x="32" y="74" width="4" height="4" style="fill:rgb(173,213,249);" />
  <polygon points="4,74 8.5,76 4,78" style="fill:rgb(173,213,249);" />
  <line x1="18" y1="74" x2="18" y2="78" style="stroke:rgb(173,213,249); stroke-width:2;" />
  <line x1="21" y1="74" x2="21" y2="78" style="stroke:rgb(173,213,249); stroke-width:2;" />
  <!--projects-->
   <rect x="4" y="10" width="32" height="30" style="stroke:rgb(173,213,249); stroke-width:0.5;" />
   <line x1="4" y1="10" x2="32" y2="40" style="stroke:rgb(173,213,249); stroke-width:0.2;" />
   <line x1="36" y1="10" x2="4" y2="40" style="stroke:rgb(173,213,249); stroke-width:0.2;" />
   
   <line x1="4" y1="45" x2="15" y2="45" style="stroke:rgb(173,213,249); stroke-width:2;" />
   <line x1="4" y1="50" x2="36" y2="50" style="stroke:rgb(173,213,249); stroke-width:1.6;" />
   <line x1="4" y1="55" x2="34" y2="55" style="stroke:rgb(173,213,249); stroke-width:1.6;" />
   <line x1="4" y1="60" x2="36" y2="60" style="stroke:rgb(173,213,249); stroke-width:1.6;" />
   <line x1="4" y1="65" x2="34" y2="65" style="stroke:rgb(173,213,249); stroke-width:1.6;" />

</svg>